<?xml version="1.0" encoding="utf-8"?>
<!-- Generator: Adobe Illustrator 16.0.0, SVG Export Plug-In . SVG Version: 6.00 Build 0)  -->
<!DOCTYPE svg PUBLIC "-//W3C//DTD SVG 1.1//EN" "http://www.w3.org/Graphics/SVG/1.1/DTD/svg11.dtd">
<svg version="1.1" id="Layer_1" xmlns="http://www.w3.org/2000/svg" xmlns:xlink="http://www.w3.org/1999/xlink" x="0px" y="0px"
	 width="595.281px" height="425.2px" viewBox="0 0 595.281 425.2" enable-background="new 0 0 595.281 425.2" xml:space="preserve">
<path fill="#FFFFFF" d="M31.882,276.48c0,0-2.381-0.279-1.26-3.92c1.12-3.638,24.503-78.552,24.503-78.552s0.14-2.1,3.081-2.1
	c2.939,0,34.023,0,34.023,0l-26.043,82.469c0,0-0.561,2.243-2.521,2.243S31.882,276.48,31.882,276.48z"/>
<path fill="#FFFFFF" d="M96.711,191.911l-16.383,52.226h17.364c0,0,18.901-1.4,26.462-21.565c7.562-20.161-8.82-30.803-8.82-30.803
	L96.711,191.911z"/>
<path fill="#FFFFFF" d="M116.032,276.48c0,0-2.38,0.417-0.981-4.197c1.401-4.62,24.504-78.412,24.504-78.412s0.7-1.958,2.101-1.958
	s24.364,0,24.364,0s1.959,0.701,1.679,1.958c-0.279,1.262-25.343,80.37-25.343,80.37s-0.7,2.38-2.521,2.38
	C138.017,276.619,116.032,276.48,116.032,276.48z"/>
<path fill="#FFFFFF" d="M201.724,215.431h-11.762c0,0-18.202,3.36-30.245,24.363c-12.039,21.003,7.842,36.824,11.063,36.824
	c3.219,0,11.761-0.138,11.761-0.138L201.724,215.431z"/>
<path fill="#FFFFFF" d="M206.204,215.431l-19.042,61.188h13.161c0,0,18.762-5.317,28.003-24.227
	c9.241-18.897-4.76-36.539-13.441-36.82C206.204,215.292,206.204,215.431,206.204,215.431z"/>
<path fill="#FFFFFF" d="M239.39,276.48c0,0-1.96-0.137-1.96-2.24c0-2.1,0-55.728,0-55.728s-0.14-1.96,1.682-1.96
	c1.819,0,31.083,0,31.083,0l0.14,49.567l-7.001,9.241c0,0-0.561,1.26-2.38,1.26C259.132,276.619,239.39,276.48,239.39,276.48z"/>
<path fill="#FFFFFF" d="M274.814,216.413v57.968c0,0-0.14,2.238,1.96,2.238c2.101,0,18.905,0,18.905,0s1.539-0.701,2.802-2.378
	c1.257-1.679,6.999-9.099,6.999-9.099v-48.727L274.814,216.413L274.814,216.413z"/>
<path fill="#FFFFFF" d="M310.236,258.416v-42.004h25.488c0,0,1.68,0.279,2.801,0.977c1.119,0.703,1.119,0.703,1.119,0.703
	L310.236,258.416z"/>
<path fill="#FFFFFF" d="M329.702,276.48c0,0-2.52-0.56-1.821-2.799c0.703-2.24,17.224-55.169,17.224-55.169s0.56-1.96,2.381-1.96
	c1.817,0,24.641,0,24.641,0l-18.901,59.928H329.702L329.702,276.48z"/>
<polygon fill="#FFFFFF" points="376.749,216.413 357.985,276.48 383.049,276.48 401.812,216.413 "/>
<path fill="#FFFFFF" d="M406.433,216.413l-18.898,60.068h26.882c0,0,1.821-0.28,2.378-2.24c0.56-1.958,13.159-42.147,13.44-43.265
	c0.285-1.12,0.703-6.859-2.376-10.361c-3.081-3.5-5.601-4.06-6.301-4.06C420.854,216.552,406.433,216.413,406.433,216.413z"/>
<path fill="#FFFFFF" d="M462.44,242.733l-10.645,33.886h-17.363c0,0-9.661-4.059-6.722-17.365
	c2.939-13.303,17.923-16.521,17.923-16.521L462.44,242.733L462.44,242.733z"/>
<path fill="#FFFFFF" d="M469.581,216.55c0,0,3.921,5.6,1.955,11.763c-1.955,6.159-14.978,48.306-14.978,48.306h26.885
	c0,0,1.401-0.138,2.1-2.238c0.703-2.1,13.161-42.005,13.161-42.005s2.381-5.183-0.979-10.501c-3.359-5.319-7.703-5.319-7.703-5.319
	L469.581,216.55L469.581,216.55z"/>
<path fill="#FFFFFF" d="M450.677,240.351c0,0,10.921-0.137,15.682-10.496c4.761-10.361-3.779-13.443-8.54-13.443
	s-12.461,2.521-16.382,11.76c-3.921,9.244,7.28,12.18,7.28,12.18H450.677z"/>
<path fill="#FFFFFF" d="M536.229,216.55c0,0-18.482,60.068-19.043,60.068c-0.56,0-22.965,0-22.965,0s-3.078,0.279-1.677-4.059
	c1.399-4.342,16.521-53.352,16.521-53.352s0.979-2.658,2.801-2.658S536.229,216.55,536.229,216.55z"/>
<path fill="#FFFFFF" d="M522.087,276.48l18.901-59.928h14.983c0,0,12.041,2.103,8.4,15.544
	c-3.64,13.442-13.306,42.425-13.306,42.425s-0.557,2.1-2.1,2.1C547.428,276.62,522.087,276.48,522.087,276.48z"/>
<path fill="#FFFFFF" d="M177.131,207.02c0,0-1.726-4.832,2.07-14.493c3.795-9.663,8.972-18.288,14.492-20.703
	c5.521-2.414,18.979-4.139,26.915-6.211c7.936-2.07,12.422-4.14,14.492-2.07c2.07,2.07,8.628,4.832,20.703,4.141
	c12.076-0.69,27.26-2.415,39.336-6.211c12.074-3.797,24.5-4.141,24.844-6.212c0.342-2.07,4.14-2.414,6.211,0
	c2.073,2.415,5.862,0.346,6.211-2.069c0.35-2.415,2.762-9.316,12.425-16.562c9.661-7.246,18.63-4.485,22.773-2.07
	c4.14,2.415,6.211,6.211,6.211,6.211s-4.487,0.69-8.281,0c-3.794-0.689-13.11-4.484-20.702,4.141
	c-7.59,8.626-12.075,18.632-12.423,22.773c-0.347,4.14-3.452-0.69-4.14-4.141c-0.69-3.449-0.344-7.246-4.141-6.211
	c-3.794,1.035-33.125,16.562-55.896,18.633c-22.774,2.071-35.197-6.211-35.197-6.211s-13.457,4.832-20.702,6.211
	c-7.246,1.38-16.562,2.071-16.562,2.071s-6.9,6.212-10.351,14.491c-3.452,8.282-4.141,14.495-4.141,14.495h-4.147V207.02
	L177.131,207.02z"/>
<path fill="#FFFFFF" d="M365.532,173.896c0,0-12.078-10.007-14.495-12.423c-2.419-2.415-1.724-9.661,4.14-12.423
	c5.864-2.76,10.352,4.141,10.352,4.141s2.759-12.767,20.703-14.493c17.941-1.725,22.773,10.352,22.773,10.352s1.379,3.797-2.07,2.07
	s-11.73-8.627-18.633-8.281c-6.899,0.345-11.382,3.796-14.492,6.211c-3.105,2.415-3.452,4.141-2.07,6.211s0.693,5.867-2.065,4.141
	c-2.761-1.726-9.663-7.592-12.425-4.141c-2.758,3.45-1.379,5.521,2.07,8.281C362.771,166.303,368.981,169.411,365.532,173.896z"/>
<path fill="#FFFFFF" d="M411.08,149.052c0,0,6.211,1.035,8.281,0c2.065-1.035,5.521-5.177,10.347-2.07
	c4.832,3.106,2.07,9.661-2.065,14.492c-4.141,4.831-6.558,8.625-10.352,6.212c-3.796-2.415-5.181-0.69-4.141,2.069
	c1.035,2.762-0.342,3.449-2.067,2.07c-1.729-1.379-4.83-3.796-4.141-8.281c0.69-4.485,5.521-5.176,6.211-4.14
	c0.693,1.035,4.831,4.831,6.215,4.14c1.38-0.691,7.588-8.281,8.281-10.352c0.689-2.069-2.419-2.069-6.215,0
	C417.638,155.261,413.493,153.191,411.08,149.052z"/>
<path fill="#FFFFFF" d="M371.743,173.896c0,0-0.345,12.765,2.07,16.561c2.419,3.799,9.316,6.211,14.492,6.211
	c5.178,0,8.281-3.796,10.352-4.138c2.07-0.345,13.11,1.377,14.492,0c1.382-1.381,3.794-10.352-2.068-12.425
	c-5.864-2.069-12.423,0-12.423,0s1.381,11.387,0,10.352c-1.38-1.035-1.035,0-2.07-4.139c-1.032-4.14-2.761-8.623,0-10.354
	c2.759-1.727,15.53-1.035,18.633,0c3.105,1.036,4.141,9.318,4.141,12.422c0,3.105,0.342,10.007-4.141,10.353
	c-4.487,0.341-10.698,3.102-14.492,6.211c-3.796,3.105-7.246-2.762-4.141-4.141c3.106-1.379,5.179,0,4.141-2.07
	c-1.038-2.069-5.866,1.035-8.281,2.07c-2.419,1.035-11.733,0.691-16.562-2.07c-4.831-2.761-8.281-7.938-8.281-12.421
	C367.604,181.833,366.913,174.237,371.743,173.896z"/>
</svg>
